<svg width="20" height="21" viewBox="0 0 20 21" fill="none" xmlns="http://www.w3.org/2000/svg">
<g id="elements">
<path id="Vector 5911" d="M4 10.2148V20.2148" stroke="#111827" stroke-width="1.5" stroke-linecap="round" stroke-linejoin="round"/>
<path id="Vector 5914" d="M16 10.2148V20.2148" stroke="#111827" stroke-width="1.5" stroke-linecap="round" stroke-linejoin="round"/>
<path id="Vector 5864" d="M7.5 20.2148L8.00647 17.1763C8.1261 16.4586 8.18592 16.0997 8.34625 15.8345C8.7446 15.1756 9.3843 15.2153 10 15.2153C10.6157 15.2153 11.2554 15.1756 11.6537 15.8345C11.8141 16.0997 11.8739 16.4586 11.9935 17.1763L12.5 20.2148" stroke="#111827" stroke-width="1.5" stroke-linecap="round" stroke-linejoin="round"/>
<path id="Vector 5865" d="M1 20.2148H19" stroke="#111827" stroke-width="1.5" stroke-linecap="round" stroke-linejoin="round"/>
<path id="Vector" d="M10 1.21484L10.7276 1.03294C10.6441 0.699067 10.3442 0.464844 10 0.464844C9.65585 0.464844 9.35586 0.699067 9.27239 1.03294L10 1.21484ZM1 7.21484V6.46484C0.758917 6.46484 0.532532 6.58073 0.391568 6.77631C0.250605 6.97189 0.212251 7.2233 0.288488 7.45201L1 7.21484ZM19 7.21484L19.7115 7.45201C19.7878 7.2233 19.7494 6.97189 19.6084 6.77631C19.4675 6.58073 19.2411 6.46484 19 6.46484V7.21484ZM9.27239 1.03294C8.83906 2.76627 6.59112 6.46484 1 6.46484V7.96484C7.40888 7.96484 10.1609 3.66342 10.7276 1.39675L9.27239 1.03294ZM9.27239 1.39675C9.83906 3.66342 12.5911 7.96484 19 7.96484V6.46484C13.4089 6.46484 11.1609 2.76627 10.7276 1.03294L9.27239 1.39675ZM5.16228 10.9648H14.8377V9.46484H5.16228V10.9648ZM18.2885 6.97767C17.7934 8.46299 16.4034 9.46484 14.8377 9.46484V10.9648C17.049 10.9648 19.0122 9.54984 19.7115 7.45201L18.2885 6.97767ZM0.288488 7.45201C0.987763 9.54984 2.95097 10.9648 5.16228 10.9648V9.46484C3.59662 9.46484 2.20662 8.46299 1.71151 6.97767L0.288488 7.45201Z" fill="#111827"/>
</g>
</svg>
