<svg width="22" height="22" viewBox="0 0 22 22" fill="none" xmlns="http://www.w3.org/2000/svg">
<g id="elements">
<path id="Vector 6761" d="M9 17.2148L13 17.2148" stroke="#111827" stroke-width="1.5" stroke-linecap="round" stroke-linejoin="round"/>
<path id="Rectangle 1147" d="M1.35139 12.4283C0.998371 10.1311 0.821861 8.98248 1.25617 7.96422C1.69047 6.94596 2.65403 6.24928 4.58114 4.85591L6.02099 3.81484C8.41829 2.08151 9.61694 1.21484 11 1.21484C12.3831 1.21484 13.5817 2.08151 15.979 3.81484L17.4189 4.85591C19.346 6.24928 20.3095 6.94596 20.7438 7.96422C21.1781 8.98248 21.0016 10.1311 20.6486 12.4283L20.3476 14.3872C19.8471 17.6438 19.5969 19.272 18.429 20.2434C17.2611 21.2148 15.5537 21.2148 12.1388 21.2148H9.86119C6.44633 21.2148 4.73891 21.2148 3.571 20.2434C2.40309 19.272 2.15287 17.6438 1.65243 14.3872L1.35139 12.4283Z" stroke="#111827" stroke-width="1.5" stroke-linejoin="round"/>
</g>
</svg>
