<svg width="20" height="20" viewBox="0 0 20 20" fill="none" xmlns="http://www.w3.org/2000/svg">
<g id="elements">
<path id="Rectangle 2333" d="M13 15.8398C12.9264 17.6918 11.3831 19.2642 9.31564 19.2137C8.83465 19.2019 8.24013 19.0342 7.05112 18.6988C4.18961 17.8917 1.70555 16.5352 1.10956 13.4964C1 12.9378 1 12.3092 1 11.0521L1 9.37759C1 8.12046 1 7.49189 1.10956 6.9333C1.70555 3.8945 4.18961 2.538 7.05112 1.73087C8.24014 1.39549 8.83465 1.2278 9.31564 1.21603C11.3831 1.16545 12.9264 2.73791 13 4.58985" stroke="#111827" stroke-width="1.5" stroke-linecap="round"/>
<path id="Vector" d="M19 10.2148H8M19 10.2148C19 9.51462 17.0057 8.20637 16.5 7.71484M19 10.2148C19 10.9151 17.0057 12.2233 16.5 12.7148" stroke="#111827" stroke-width="1.5" stroke-linecap="round" stroke-linejoin="round"/>
</g>
</svg>
