<svg width="20" height="22" viewBox="0 0 20 22" fill="none" xmlns="http://www.w3.org/2000/svg">
<g id="elements">
<path id="Vector" d="M4.57757 14.6964C3.1628 15.5388 -0.546635 17.259 1.71266 19.4114C2.81631 20.4629 4.04549 21.2148 5.59087 21.2148H14.4091C15.9545 21.2148 17.1837 20.4629 18.2873 19.4114C20.5466 17.259 16.8372 15.5388 15.4224 14.6964C12.1048 12.721 7.89519 12.721 4.57757 14.6964Z" stroke="#111827" stroke-width="1.5" stroke-linecap="round" stroke-linejoin="round"/>
<path id="Ellipse 1381" d="M14.5 5.71484C14.5 8.20013 12.4853 10.2148 10 10.2148C7.51472 10.2148 5.5 8.20013 5.5 5.71484C5.5 3.22956 7.51472 1.21484 10 1.21484C12.4853 1.21484 14.5 3.22956 14.5 5.71484Z" stroke="#111827" stroke-width="1.5"/>
</g>
</svg>
