<svg width="22" height="22" viewBox="0 0 22 22" fill="none" xmlns="http://www.w3.org/2000/svg">
<g id="elements">
<path id="Vector" d="M4 15.2148L9 12.2148M13 10.2148L18 7.21484M11 4.21484V9.21484M11 13.2148V18.2148M4 7.21484L9 10.2148M13 12.2148L18 15.2148" stroke="#111827" stroke-width="1.5" stroke-linejoin="round"/>
<path id="Polygon 45" d="M19.5 8.21485V13.7149M12.5 19.7148L18 16.7148M3.5 16.7148L9.5 19.7148M2.5 14.2148V8.21485M3.5 5.71484L9.5 2.71484M18.5 5.71484L12.5 2.71484" stroke="#111827" stroke-width="1.5" stroke-linejoin="round"/>
<circle id="Ellipse 1998" cx="11" cy="2.71484" r="1.5" stroke="#111827" stroke-width="1.5" stroke-linejoin="round"/>
<circle id="Ellipse 2003" cx="11" cy="19.7148" r="1.5" stroke="#111827" stroke-width="1.5" stroke-linejoin="round"/>
<circle id="Ellipse 1999" cx="2.5" cy="6.71484" r="1.5" stroke="#111827" stroke-width="1.5" stroke-linejoin="round"/>
<circle id="Ellipse 2000" cx="19.5" cy="6.71484" r="1.5" stroke="#111827" stroke-width="1.5" stroke-linejoin="round"/>
<circle id="Ellipse 2001" cx="19.5" cy="15.7148" r="1.5" stroke="#111827" stroke-width="1.5" stroke-linejoin="round"/>
<circle id="Ellipse 2002" cx="2.5" cy="15.7148" r="1.5" stroke="#111827" stroke-width="1.5" stroke-linejoin="round"/>
<path id="Polygon 48" d="M11 8.96484L13 10.0898V12.3398L11 13.4648L9 12.3398V10.0898L11 8.96484Z" stroke="#111827" stroke-width="1.5" stroke-linejoin="round"/>
</g>
</svg>
