<svg width="22" height="22" viewBox="0 0 22 22" fill="none" xmlns="http://www.w3.org/2000/svg">
<g id="elements">
<path id="Vector" d="M17 0.753906V2.75391M5 0.753906V2.75391" stroke="#111827" stroke-width="1.5" stroke-linecap="round" stroke-linejoin="round"/>
<path id="Vector_2" d="M10.9955 11.7539H11.0045M10.9955 15.7539H11.0045M14.991 11.7539H15M7 11.7539H7.00897M7 15.7539H7.00897" stroke="#111827" stroke-width="2" stroke-linecap="round" stroke-linejoin="round"/>
<path id="Vector 4046" d="M2.5 6.75391H19.5" stroke="#111827" stroke-width="1.5" stroke-linecap="round" stroke-linejoin="round"/>
<path id="Vector_3" d="M1.5 10.9971C1.5 6.63984 1.5 4.46119 2.75212 3.10755C4.00424 1.75391 6.01949 1.75391 10.05 1.75391H11.95C15.9805 1.75391 17.9958 1.75391 19.2479 3.10755C20.5 4.46119 20.5 6.63984 20.5 10.9971V11.5107C20.5 15.868 20.5 18.0466 19.2479 19.4003C17.9958 20.7539 15.9805 20.7539 11.95 20.7539H10.05C6.01949 20.7539 4.00424 20.7539 2.75212 19.4003C1.5 18.0466 1.5 15.868 1.5 11.5107V10.9971Z" stroke="#111827" stroke-width="1.5" stroke-linecap="round" stroke-linejoin="round"/>
<path id="Vector 4049" d="M2 6.75391H20" stroke="#111827" stroke-width="1.5" stroke-linecap="round" stroke-linejoin="round"/>
</g>
</svg>
