<svg width="22" height="22" viewBox="0 0 22 22" fill="none" xmlns="http://www.w3.org/2000/svg">
<g id="elements">
<circle id="Ellipse 1244" cx="11" cy="10.751" r="10" stroke="#141B34" stroke-width="1.5"/>
<path id="Vector" d="M11.75 5.75098C11.75 5.33676 11.4142 5.00098 11 5.00098C10.5858 5.00098 10.25 5.33676 10.25 5.75098H11.75ZM13.0303 11.7206C12.7374 11.4278 12.2626 11.4278 11.9697 11.7206C11.6768 12.0135 11.6768 12.4884 11.9697 12.7813L13.0303 11.7206ZM13.4697 14.2813C13.7626 14.5742 14.2374 14.5742 14.5303 14.2813C14.8232 13.9884 14.8232 13.5135 14.5303 13.2206L13.4697 14.2813ZM10.25 5.75098V9.25098H11.75V5.75098H10.25ZM11.9697 12.7813L13.4697 14.2813L14.5303 13.2206L13.0303 11.7206L11.9697 12.7813ZM11.75 10.751C11.75 11.1652 11.4142 11.501 11 11.501V13.001C12.2426 13.001 13.25 11.9936 13.25 10.751H11.75ZM11 11.501C10.5858 11.501 10.25 11.1652 10.25 10.751H8.75C8.75 11.9936 9.75736 13.001 11 13.001V11.501ZM10.25 10.751C10.25 10.3368 10.5858 10.001 11 10.001V8.50098C9.75736 8.50098 8.75 9.50834 8.75 10.751H10.25ZM11 10.001C11.4142 10.001 11.75 10.3368 11.75 10.751H13.25C13.25 9.50834 12.2426 8.50098 11 8.50098V10.001Z" fill="#141B34"/>
</g>
</svg>
