<svg width="18" height="22" viewBox="0 0 18 22" fill="none" xmlns="http://www.w3.org/2000/svg">
<g id="elements">
<path id="Ellipse 1531" d="M2.14286 13.2148C1.41735 12.023 1 10.6266 1 9.1337C1 4.76024 4.58172 1.21484 9 1.21484C13.4183 1.21484 17 4.76024 17 9.1337C17 10.6266 16.5827 12.023 15.8571 13.2148" stroke="#111827" stroke-width="1.5" stroke-linecap="round"/>
<path id="Ellipse 1532" d="M11 9.21484C10.3875 9.85804 9.7111 10.2148 9 10.2148C8.28889 10.2148 7.61246 9.85804 7 9.21484" stroke="#111827" stroke-width="1.5" stroke-linecap="round"/>
<path id="Rectangle 2159" d="M4.38287 16.3131C4.291 16.0365 4.24507 15.8982 4.25042 15.7861C4.26174 15.5491 4.41114 15.3411 4.63157 15.2554C4.73579 15.2148 4.88105 15.2148 5.17157 15.2148H12.8284C13.119 15.2148 13.2642 15.2148 13.3684 15.2554C13.5889 15.3411 13.7383 15.5491 13.7496 15.7861C13.7549 15.8982 13.709 16.0365 13.6171 16.3131C13.4473 16.8243 13.3624 17.0799 13.2315 17.2869C12.9572 17.7205 12.5272 18.0316 12.0306 18.1556C11.7935 18.2148 11.525 18.2148 10.9881 18.2148H7.01186C6.47495 18.2148 6.2065 18.2148 5.96944 18.1556C5.47283 18.0316 5.04281 17.7205 4.7685 17.2869C4.63755 17.0799 4.55266 16.8243 4.38287 16.3131Z" stroke="#111827" stroke-width="1.5"/>
<path id="Rectangle 2160" d="M12 18.2148L11.8707 18.8614C11.7293 19.5685 11.6586 19.922 11.5001 20.2014C11.2552 20.6334 10.8582 20.9588 10.3866 21.1143C10.0816 21.2148 9.72105 21.2148 9 21.2148C8.27895 21.2148 7.91842 21.2148 7.61338 21.1143C7.14175 20.9588 6.74484 20.6334 6.49987 20.2014C6.34144 19.922 6.27073 19.5685 6.12932 18.8614L6 18.2148" stroke="#111827" stroke-width="1.5"/>
<path id="Vector 4484" d="M9 14.7148V10.2148" stroke="#111827" stroke-width="1.5" stroke-linecap="round" stroke-linejoin="round"/>
</g>
</svg>
