<svg width="41" height="41" viewBox="0 0 41 41" fill="none" xmlns="http://www.w3.org/2000/svg">
<rect width="41" height="41" rx="20.5" fill="#F2EDF5"/>
<path d="M15.5 14.501C14.2794 14.5046 13.6038 14.5338 13.0487 14.7668C12.2712 15.0932 11.638 15.696 11.2681 16.4621C10.9662 17.0874 10.9168 17.8885 10.818 19.4907L10.6631 22.0014C10.4174 25.9858 10.2945 27.978 11.4637 29.2392C12.6328 30.5005 14.6025 30.5005 18.5419 30.5005H22.4581C26.3975 30.5005 28.3672 30.5005 29.5363 29.2392C30.7055 27.978 30.5826 25.9858 30.3369 22.0014L30.182 19.4907C30.0832 17.8885 30.0338 17.0874 29.7319 16.4621C29.362 15.696 28.7288 15.0932 27.9513 14.7668C27.3962 14.5338 26.7206 14.5046 25.5 14.501" stroke="#141B34" stroke-width="1.5" stroke-linecap="round"/>
<path d="M25.5 15.5L24.6142 13.2854C24.232 12.33 23.8994 11.2461 22.9166 10.7596C22.3924 10.5 21.7616 10.5 20.5 10.5C19.2384 10.5 18.6076 10.5 18.0834 10.7596C17.1006 11.2461 16.768 12.33 16.3858 13.2854L15.5 15.5" stroke="#141B34" stroke-width="1.5" stroke-linecap="round" stroke-linejoin="round"/>
<path d="M24 22.5C24 24.433 22.433 26 20.5 26C18.567 26 17 24.433 17 22.5C17 20.567 18.567 19 20.5 19C22.433 19 24 20.567 24 22.5Z" stroke="#141B34" stroke-width="1.5"/>
<path d="M20.4998 14.5H20.5088" stroke="#141B34" stroke-width="2" stroke-linecap="round" stroke-linejoin="round"/>
</svg>
