<svg width="23" height="20" viewBox="0 0 23 20" fill="none" xmlns="http://www.w3.org/2000/svg">
<g id="elements">
<path id="Rectangle 2044" d="M1.5 10.3403C1.5 9.23576 2.39543 8.34033 3.5 8.34033C5.15685 8.34033 6.5 9.68348 6.5 11.3403V15.3403C6.5 16.9972 5.15685 18.3403 3.5 18.3403C2.39543 18.3403 1.5 17.4449 1.5 16.3403V10.3403Z" stroke="#141B34" stroke-width="1.5" stroke-linecap="round" stroke-linejoin="round"/>
<path id="Vector" d="M14.9787 5.64659L14.7124 6.50667C14.4942 7.21144 14.3851 7.56382 14.469 7.84213C14.5369 8.06728 14.6859 8.26135 14.889 8.38904C15.14 8.54688 15.5197 8.54688 16.2791 8.54688H16.6831C19.2532 8.54688 20.5382 8.54688 21.1452 9.30763C21.2145 9.39458 21.2762 9.48703 21.3296 9.584C21.7965 10.4325 21.2657 11.5755 20.204 13.8614C19.2297 15.9592 18.7425 17.0081 17.838 17.6255C17.7505 17.6853 17.6605 17.7416 17.5683 17.7945C16.616 18.3403 15.4362 18.3403 13.0764 18.3403H12.5646C9.70572 18.3403 8.27628 18.3403 7.38814 17.4798C6.5 16.6193 6.5 15.2343 6.5 12.4643V11.4907C6.5 10.035 6.5 9.30711 6.75834 8.64093C7.01668 7.97474 7.51135 7.42698 8.50069 6.33145L12.5921 1.80089C12.6947 1.68727 12.746 1.63045 12.7913 1.59108C13.2135 1.22361 13.8652 1.26498 14.2344 1.68268C14.274 1.72743 14.3172 1.79024 14.4036 1.91587C14.5388 2.11238 14.6064 2.21064 14.6654 2.30799C15.1928 3.17946 15.3524 4.2147 15.1108 5.19748C15.0838 5.30725 15.0488 5.42043 14.9787 5.64659Z" stroke="#141B34" stroke-width="1.5" stroke-linecap="round" stroke-linejoin="round"/>
</g>
</svg>
