<svg width="146" height="146" viewBox="0 0 146 146" fill="none" xmlns="http://www.w3.org/2000/svg">
<g id="logout">
<path id="Vector" fill-rule="evenodd" clip-rule="evenodd" d="M127.75 66.9163H54.75V79.083H127.75V66.9163Z" fill="#7F7F7F"/>
<path id="Vector_2" fill-rule="evenodd" clip-rule="evenodd" d="M110.761 98.5928L132.052 77.3012C134.428 74.9256 134.428 71.0737 132.052 68.6981L110.761 47.4064L102.157 56.0095L119.147 72.9996L102.157 89.9897L110.761 98.5928Z" fill="#7F7F7F"/>
<path id="Vector_3" fill-rule="evenodd" clip-rule="evenodd" d="M97.334 121.667C97.334 125.026 94.6104 127.75 91.2507 127.75H18.2507C14.8908 127.75 12.1673 125.026 12.1673 121.667V24.3333C12.1673 20.9735 14.8908 18.25 18.2507 18.25H91.2507C94.6104 18.25 97.334 20.9735 97.334 24.3333V42.5833H85.1673V30.4167H24.334V115.583H85.1673V103.417H97.334V121.667Z" fill="#7F7F7F"/>
</g>
</svg>
