<svg width="22" height="20" viewBox="0 0 22 20" fill="none" xmlns="http://www.w3.org/2000/svg">
<g id="elements">
<path id="Vector 7163" d="M1 4.09131L7.91302 8.00828C10.4616 9.45232 11.5384 9.45232 14.087 8.00828L21 4.09131" stroke="#6A0DAD" stroke-width="1.5" stroke-linejoin="round"/>
<path id="Vector" d="M1.01577 11.5669C1.08114 14.6325 1.11383 16.1652 2.24496 17.3007C3.37608 18.4361 4.95033 18.4756 8.09883 18.5548C10.0393 18.6035 11.9607 18.6035 13.9012 18.5548C17.0497 18.4756 18.6239 18.4361 19.7551 17.3007C20.8862 16.1652 20.9189 14.6325 20.9842 11.5669C21.0053 10.5812 21.0053 9.60138 20.9842 8.6157C20.9189 5.55017 20.8862 4.0174 19.7551 2.88197C18.6239 1.74654 17.0497 1.70699 13.9012 1.62788C11.9607 1.57912 10.0393 1.57912 8.09882 1.62787C4.95033 1.70697 3.37608 1.74652 2.24495 2.88196C1.11382 4.01739 1.08114 5.55015 1.01576 8.61569C0.994745 9.60137 0.994745 10.5812 1.01577 11.5669Z" stroke="#6A0DAD" stroke-width="1.5" stroke-linejoin="round"/>
</g>
</svg>
