<svg width="46" height="45" viewBox="0 0 46 45" fill="none" xmlns="http://www.w3.org/2000/svg">
<rect x="0.494141" width="45" height="45" rx="22.5" fill="#F2EDF5"/>
<path d="M27.4941 22.5C27.4941 25.2614 25.2556 27.5 22.4941 27.5C19.7327 27.5 17.4941 25.2614 17.4941 22.5C17.4941 19.7386 19.7327 17.5 22.4941 17.5" stroke="#6A0DAD" stroke-width="1.5" stroke-linecap="round"/>
<path d="M24.4941 12.7C23.8479 12.5689 23.1791 12.5 22.4941 12.5C16.9713 12.5 12.4941 16.9772 12.4941 22.5C12.4941 28.0228 16.9713 32.5 22.4941 32.5C28.017 32.5 32.4941 28.0228 32.4941 22.5C32.4941 21.8151 32.4253 21.1462 32.2941 20.5" stroke="#6A0DAD" stroke-width="1.5" stroke-linecap="round"/>
<path d="M21.9638 21.9697C21.6709 22.2626 21.6709 22.7374 21.9638 23.0303C22.2567 23.3232 22.7316 23.3232 23.0245 23.0303L21.9638 21.9697ZM30.185 14.8091L29.4593 14.9985C29.5279 15.2611 29.733 15.4663 29.9957 15.5348L30.185 14.8091ZM29.6687 12.8301L28.943 13.0194V13.0194L29.6687 12.8301ZM28.7922 12.6901L29.3225 13.2204V13.2204L28.7922 12.6901ZM27.6428 13.8394L27.1125 13.3091V13.3091L27.6428 13.8394ZM26.7723 16.6513L26.0466 16.8406L26.0466 16.8406L26.7723 16.6513ZM32.1641 15.3255L31.9747 16.0512V16.0512L32.1641 15.3255ZM32.3041 16.202L31.7738 15.6716L31.7738 15.6716L32.3041 16.202ZM31.1547 17.3513L31.685 17.8817H31.685L31.1547 17.3513ZM28.3428 18.2219L28.1535 18.9476L28.3428 18.2219ZM26.5669 17.3665L21.9638 21.9697L23.0245 23.0303L27.6276 18.4272L26.5669 17.3665ZM30.9107 14.6198L30.3944 12.6407L28.943 13.0194L29.4593 14.9985L30.9107 14.6198ZM28.2618 12.1597L27.1125 13.3091L28.1731 14.3698L29.3225 13.2204L28.2618 12.1597ZM26.0466 16.8406L26.3716 18.0862L27.823 17.7075L27.498 16.4619L26.0466 16.8406ZM29.9957 15.5348L31.9747 16.0512L32.3534 14.5998L30.3744 14.0834L29.9957 15.5348ZM31.7738 15.6716L30.6244 16.821L31.685 17.8817L32.8344 16.7323L31.7738 15.6716ZM28.5322 17.4962L27.2866 17.1712L26.9079 18.6226L28.1535 18.9476L28.5322 17.4962ZM30.6244 16.821C30.0034 17.442 29.1802 17.6652 28.5322 17.4962L28.1535 18.9476C29.3926 19.2709 30.7466 18.8201 31.685 17.8817L30.6244 16.821ZM31.9747 16.0512C31.9235 16.0378 31.8651 16.0052 31.8184 15.9513C31.7739 15.8999 31.7538 15.8456 31.7471 15.8035C31.7338 15.7203 31.7675 15.6779 31.7738 15.6716L32.8344 16.7323C33.1467 16.42 33.2956 15.9876 33.2283 15.5669C33.1589 15.1319 32.8528 14.7301 32.3534 14.5998L31.9747 16.0512ZM27.1125 13.3091C26.174 14.2475 25.7233 15.6015 26.0466 16.8406L27.498 16.4619C27.3289 15.8139 27.5521 14.9908 28.1731 14.3698L27.1125 13.3091ZM30.3944 12.6407C30.2641 12.1413 29.8623 11.8353 29.4273 11.7658C29.0065 11.6986 28.5742 11.8474 28.2618 12.1597L29.3225 13.2204C29.3162 13.2267 29.2738 13.2603 29.1906 13.247C29.1486 13.2403 29.0943 13.2203 29.0429 13.1758C28.9889 13.129 28.9563 13.0706 28.943 13.0194L30.3944 12.6407Z" fill="#6A0DAD"/>
</svg>
