<svg width="46" height="45" viewBox="0 0 46 45" fill="none" xmlns="http://www.w3.org/2000/svg">
<rect x="0.494141" width="45" height="45" rx="22.5" fill="#F2EDF5"/>
<path d="M17.0938 22.423C22.1664 12.9687 28.4827 12.8597 31.0068 13.9869C32.1341 16.511 32.0251 22.8274 22.5708 27.9C22.4728 27.3364 21.9275 25.8599 20.5307 24.4631C19.1339 23.0663 17.6574 22.521 17.0938 22.423Z" stroke="#6A0DAD" stroke-width="1.5" stroke-linecap="round" stroke-linejoin="round"/>
<path d="M23.8438 27.45C25.6823 28.35 25.8785 29.9638 26.1332 31.5C26.1332 31.5 29.9839 28.6535 27.5208 24.75" stroke="#6A0DAD" stroke-width="1.5" stroke-linecap="round" stroke-linejoin="round"/>
<path d="M17.5441 21.2269C16.6441 19.3884 15.0303 19.1921 13.4941 18.9375C13.4941 18.9375 16.3406 15.0868 20.2441 17.5499" stroke="#6A0DAD" stroke-width="1.5" stroke-linecap="round" stroke-linejoin="round"/>
<path d="M16.5122 25.4113C16.0004 25.9231 15.1303 27.4074 15.7445 29.25C17.5871 29.8642 19.0714 28.9941 19.5832 28.4823" stroke="#6A0DAD" stroke-width="1.5" stroke-linecap="round" stroke-linejoin="round"/>
<path d="M27.7949 18.9502C27.7949 17.9837 27.0114 17.2002 26.0449 17.2002C25.0784 17.2002 24.2949 17.9837 24.2949 18.9502C24.2949 19.9167 25.0784 20.7002 26.0449 20.7002C27.0114 20.7002 27.7949 19.9167 27.7949 18.9502Z" stroke="#6A0DAD" stroke-width="1.5"/>
</svg>
