<svg width="18" height="22" viewBox="0 0 18 22" fill="none" xmlns="http://www.w3.org/2000/svg">
<g id="elements">
<path id="Vector" d="M1 17.3968V6.80524C1 3.95123 1 2.52423 1.87868 1.6376C2.75736 0.750977 4.17157 0.750977 7 0.750977H11C13.8284 0.750977 15.2426 0.750977 16.1213 1.6376C17 2.52423 17 3.95123 17 6.80524V17.3968C17 18.9084 17 19.6643 16.538 19.9618C15.7831 20.448 14.6161 19.4284 14.0291 19.0583C13.5441 18.7524 13.3017 18.5995 13.0325 18.5906C12.7417 18.5811 12.4949 18.7278 11.9709 19.0583L10.06 20.2634C9.54454 20.5884 9.28679 20.751 9 20.751C8.71321 20.751 8.45546 20.5884 7.94 20.2634L6.02913 19.0583C5.54415 18.7524 5.30166 18.5995 5.03253 18.5906C4.74172 18.5811 4.49493 18.7278 3.97087 19.0583C3.38395 19.4284 2.21687 20.448 1.46195 19.9618C1 19.6643 1 18.9084 1 17.3968Z" stroke="#141B34" stroke-width="1.5" stroke-linecap="round" stroke-linejoin="round"/>
<path id="Vector 4000" d="M8 9.75098H5" stroke="#141B34" stroke-width="1.5" stroke-linecap="round" stroke-linejoin="round"/>
<path id="Vector 3999" d="M11 5.75098L5 5.75098" stroke="#141B34" stroke-width="1.5" stroke-linecap="round" stroke-linejoin="round"/>
</g>
</svg>
