<svg width="44" height="33" viewBox="0 0 44 33" fill="none" xmlns="http://www.w3.org/2000/svg">
<path id="Vector" d="M12.2222 0.750977H7.33333C3.28957 0.750977 0 3.81119 0 7.57301V12.121C0 15.8828 3.28957 18.9431 7.33333 18.9431H12.2222C13.0071 18.9431 13.7492 18.7977 14.4587 18.5841C13.4731 23.94 8.48075 28.0391 2.44444 28.0391C1.09332 28.0391 0 29.0562 0 30.3131C0 31.57 1.09332 32.5871 2.44444 32.5871C11.8785 32.5871 19.5556 25.4454 19.5556 16.669V7.57301C19.5556 3.81119 16.266 0.750977 12.2222 0.750977ZM36.6667 0.750977H31.7778C27.734 0.750977 24.4444 3.81119 24.4444 7.57301V12.121C24.4444 15.8828 27.734 18.9431 31.7778 18.9431H36.6667C37.4515 18.9431 38.1936 18.7977 38.9032 18.5841C37.9176 23.94 32.9252 28.0391 26.8889 28.0391C25.5378 28.0391 24.4444 29.0562 24.4444 30.3131C24.4444 31.57 25.5378 32.5871 26.8889 32.5871C36.323 32.5871 44 25.4454 44 16.669V7.57301C44 3.81119 40.7104 0.750977 36.6667 0.750977Z" fill="#F2EDF5"/>
</svg>
