<svg width="202" height="56" viewBox="0 0 202 56" fill="none" xmlns="http://www.w3.org/2000/svg">
<g id="Layer 2">
<g id="page 02">
<path id="Vector" d="M26.2678 31.8265L31.8702 35.0599C31.9595 35.1138 32.0336 35.1897 32.0854 35.2803C32.1372 35.3709 32.165 35.4733 32.1662 35.5776V40.2692C32.1766 40.3962 32.1458 40.5232 32.0783 40.6313C32.0107 40.7394 31.9101 40.8228 31.7913 40.8691C31.6725 40.9154 31.5419 40.9222 31.419 40.8883C31.2961 40.8545 31.1874 40.7819 31.1091 40.6813C30.473 40.0349 29.7145 39.5216 28.8779 39.1715C28.0412 38.8213 27.1431 38.6413 26.2361 38.6419C25.3288 38.6401 24.4304 38.8196 23.5936 39.1698C22.7567 39.52 21.9984 40.0339 21.363 40.6813C21.2847 40.7819 21.176 40.8545 21.0531 40.8883C20.9302 40.9222 20.7996 40.9154 20.6808 40.8691C20.562 40.8228 20.4614 40.7394 20.3939 40.6313C20.3263 40.5232 20.2955 40.3962 20.306 40.2692V35.5776C20.3071 35.4733 20.3349 35.3709 20.3867 35.2803C20.4385 35.1897 20.5126 35.1138 20.6019 35.0599L26.2678 31.8265Z" fill="#6A0DAD"/>
<path id="Vector_2" d="M32.1665 29.0477L37.1241 24.895C37.2043 24.8261 37.3016 24.78 37.4057 24.7614C37.5098 24.7428 37.6169 24.7525 37.7161 24.7893L42.1134 26.4166C42.2225 26.4627 42.3156 26.5399 42.381 26.6385C42.4464 26.7372 42.4813 26.8529 42.4813 26.9713C42.4813 27.0897 42.4464 27.2054 42.381 27.3041C42.3156 27.4028 42.2225 27.48 42.1134 27.5261C41.2879 27.8985 40.5454 28.4327 39.9299 29.097C39.3144 29.7612 38.8384 30.5421 38.53 31.3934C38.2162 32.2462 38.0769 33.1533 38.1205 34.0608C38.1641 34.9684 38.3896 35.858 38.7837 36.6768C38.8349 36.7847 38.8529 36.9054 38.8353 37.0236C38.8178 37.1418 38.7654 37.2521 38.6849 37.3405C38.6045 37.4288 38.4996 37.4913 38.3835 37.5198C38.2674 37.5484 38.1455 37.5418 38.0332 37.501L33.6781 35.9265C33.5787 35.8888 33.4905 35.8263 33.4221 35.7449C33.3536 35.6635 33.3071 35.566 33.287 35.4616L32.1665 29.0477Z" fill="#6A0DAD"/>
<path id="Vector_3" d="M30.5916 23.1724L28.3823 17.0966C28.3466 16.9974 28.3375 16.8905 28.3561 16.7866C28.3746 16.6828 28.4201 16.5856 28.488 16.5049L31.5007 12.9122C31.5778 12.8225 31.6797 12.7574 31.7937 12.7252C31.9076 12.693 32.0285 12.695 32.1413 12.7311C32.2541 12.7672 32.3537 12.8357 32.4278 12.928C32.5018 13.0204 32.547 13.1325 32.5577 13.2504C32.6248 14.1569 32.8725 15.0408 33.2864 15.8501C33.7003 16.6595 34.272 17.3779 34.9678 17.9631C35.6633 18.547 36.4686 18.9862 37.3363 19.2548C38.204 19.5233 39.1166 19.6159 40.0206 19.5269C40.1388 19.5166 40.2575 19.5413 40.3617 19.5981C40.4659 19.6549 40.551 19.7412 40.6063 19.8462C40.6616 19.9511 40.6847 20.0701 40.6727 20.1881C40.6606 20.3062 40.6139 20.418 40.5385 20.5096L37.5259 24.0812C37.4626 24.1584 37.3813 24.219 37.2892 24.2577C37.1971 24.2963 37.0969 24.3119 36.9974 24.303L30.5916 23.1724Z" fill="#6A0DAD"/>
<path id="Vector_4" d="M24.5238 22.6336H18.0651C17.9589 22.6343 17.8544 22.6073 17.7618 22.5555C17.6691 22.5036 17.5915 22.4286 17.5366 22.3377L15.2005 18.2802C15.1372 18.1778 15.1066 18.0587 15.1128 17.9385C15.1191 17.8184 15.1617 17.703 15.2352 17.6077C15.3087 17.5124 15.4095 17.4418 15.5242 17.4053C15.6388 17.3687 15.7619 17.368 15.877 17.4031C16.7575 17.6531 17.6794 17.7229 18.5875 17.6085C19.4956 17.4942 20.3714 17.1979 21.1623 16.7374C21.9461 16.2798 22.6304 15.6702 23.175 14.9443C23.7196 14.2185 24.1135 13.3911 24.3335 12.5108C24.3705 12.4073 24.4352 12.3159 24.5205 12.2466C24.6057 12.1772 24.7084 12.1324 24.8173 12.1172C24.9261 12.102 25.0371 12.1168 25.1382 12.1601C25.2392 12.2034 25.3265 12.2735 25.3905 12.3629L27.7372 16.4204C27.7891 16.5123 27.8163 16.6161 27.8163 16.7216C27.8163 16.8271 27.7891 16.9308 27.7372 17.0227L24.5238 22.6336Z" fill="#6A0DAD"/>
<path id="Vector_5" d="M21.9552 28.1493L19.7353 34.2251C19.7013 34.3248 19.6412 34.4136 19.5613 34.4823C19.4813 34.5511 19.3845 34.5972 19.2808 34.616L14.6614 35.4297C14.5443 35.4492 14.424 35.4336 14.3156 35.385C14.2073 35.3364 14.1157 35.2568 14.0525 35.1563C13.9892 35.0558 13.9571 34.9389 13.9601 34.8202C13.9632 34.7015 14.0012 34.5864 14.0695 34.4892C14.6 33.7518 14.9771 32.9155 15.1786 32.0298C15.3802 31.1441 15.402 30.227 15.2428 29.3327C15.0848 28.4397 14.75 27.5871 14.2581 26.8251C13.7662 26.063 13.1271 25.4067 12.3782 24.8947C12.29 24.8239 12.2235 24.7296 12.1864 24.6226C12.1493 24.5157 12.143 24.4005 12.1684 24.2902C12.1938 24.1799 12.2497 24.079 12.3298 23.9991C12.4099 23.9191 12.511 23.8633 12.6213 23.8381L17.2301 23.0245C17.3354 23.008 17.4431 23.0188 17.5431 23.0558C17.643 23.0928 17.7318 23.1547 17.8009 23.2358L21.9552 28.1493Z" fill="#6A0DAD"/>
<path id="Vector_6" d="M25.3694 36.8564L35.1578 42.5095V53.8052C34.1673 52.086 32.7409 50.6582 31.0224 49.6657C29.304 48.6732 27.3541 48.1512 25.3694 48.1521C23.3847 48.1512 21.4349 48.6732 19.7164 49.6657C17.9979 50.6582 16.5715 52.086 15.5811 53.8052V42.5095L25.3694 36.8564Z" fill="#6A0DAD"/>
<path id="Vector_7" d="M35.3479 30.21L44.0052 22.9402L54.5758 26.8076C52.6216 27.1535 50.7928 28.0075 49.2732 29.2835C47.7536 30.5596 46.5966 32.2129 45.9185 34.0774C45.2419 35.9409 45.0665 37.9493 45.4096 39.9018C45.7528 41.8543 46.6026 43.6827 47.8741 45.2041L37.3035 41.3367L35.3479 30.21Z" fill="#6A0DAD"/>
<path id="Vector_8" d="M32.7685 20.4466L28.8997 9.87996L36.1617 1.22589C35.8157 3.17972 35.9911 5.19021 36.6704 7.05463C37.3496 8.91905 38.5086 10.5715 40.0305 11.8453C41.5527 13.1049 43.3791 13.9426 45.3271 14.2745C47.275 14.6065 49.2759 14.421 51.1296 13.7368L43.8676 22.412L32.7685 20.4466Z" fill="#6A0DAD"/>
<path id="Vector_9" d="M22.663 19.5694H11.363L5.70776 9.78469C7.42718 10.777 9.37762 11.2994 11.363 11.2994C13.3484 11.2994 15.2989 10.777 17.0183 9.78469C18.7353 8.7913 20.1613 7.36474 21.1537 5.64764C22.1461 3.93054 22.6702 1.98308 22.6736 0L28.3183 9.78469L22.663 19.5694Z" fill="#6A0DAD"/>
<path id="Vector_10" d="M18.3928 28.7201L14.5346 39.2867L3.40373 41.3049C4.92979 40.0254 6.0904 38.3654 6.76796 36.493C7.44552 34.6207 7.61596 32.6026 7.262 30.6432C6.91104 28.6982 6.05569 26.8792 4.78136 25.368C3.50704 23.8568 1.85836 22.7063 0 22.0314L11.1308 20.0766L18.3928 28.7201Z" fill="#6A0DAD"/>
<path id="Vector_11" d="M69.2059 24.0497V10.9894H64.6816V8.59076H76.6793V10.9894H72.1656V24.0497H69.2059Z" fill="#6A0DAD"/>
<path id="Vector_12" d="M80.0086 24.3029C79.2194 24.3271 78.4351 24.1717 77.7147 23.8485C77.1586 23.5867 76.6944 23.1632 76.3829 22.6334C76.0929 22.1175 75.9434 21.5345 75.9495 20.9427C75.9357 20.3086 76.1164 19.6854 76.4674 19.157C76.8608 18.6145 77.4047 18.1994 78.0319 17.9629C78.875 17.6428 79.773 17.492 80.6745 17.5191H83.4334C83.447 17.0548 83.3717 16.5921 83.2115 16.156C83.0868 15.8175 82.8474 15.5334 82.5349 15.353C82.1522 15.1602 81.7263 15.0692 81.2982 15.0888C80.7971 15.0749 80.3023 15.2031 79.8712 15.4586C79.6766 15.5788 79.5112 15.7407 79.3869 15.9325C79.2625 16.1244 79.1824 16.3415 79.1524 16.5681H76.256C76.3143 15.8207 76.5857 15.1056 77.0382 14.5077C77.5125 13.9089 78.1307 13.44 78.8352 13.1446C79.6228 12.8217 80.4682 12.6635 81.3193 12.6796C82.2523 12.6594 83.1787 12.8396 84.036 13.208C84.7623 13.534 85.3763 14.067 85.8013 14.7401C86.2371 15.4818 86.4534 16.3319 86.4249 17.1916V24.081H83.8986L83.5709 22.3798C83.4137 22.6663 83.222 22.9324 83 23.1723C82.7701 23.4131 82.5067 23.6195 82.2178 23.7851C81.9098 23.9727 81.5746 24.1117 81.2242 24.1972C80.8251 24.2841 80.4166 24.3197 80.0086 24.3029ZM80.7168 21.9994C81.0808 22.0127 81.4429 21.9403 81.7739 21.7881C82.0701 21.652 82.3361 21.4579 82.5561 21.2175C82.7783 20.9731 82.9538 20.6902 83.074 20.3827C83.2057 20.0435 83.2911 19.6881 83.3277 19.326H81.0339C80.6534 19.3163 80.2741 19.3735 79.9134 19.4951C79.6609 19.5844 79.4427 19.7507 79.2898 19.9706C79.1537 20.1813 79.0838 20.4278 79.0889 20.6786C79.0766 20.9368 79.147 21.1922 79.2898 21.4077C79.4311 21.6096 79.63 21.7642 79.8606 21.8515C80.1341 21.9556 80.4242 22.0093 80.7168 22.01V21.9994Z" fill="#6A0DAD"/>
<path id="Vector_13" d="M88.6555 24.0497V8.19977H91.6364V24.0497H88.6555Z" fill="#6A0DAD"/>
<path id="Vector_14" d="M99.3637 24.3029C98.3284 24.3211 97.3057 24.0737 96.3934 23.5843C95.547 23.1189 94.8505 22.4227 94.3849 21.5767C93.8928 20.6542 93.6453 19.621 93.6661 18.5758C93.6424 17.5078 93.8858 16.4509 94.3744 15.5009C94.8295 14.6235 95.5216 13.8913 96.3722 13.3875C97.2876 12.887 98.321 12.6425 99.3637 12.6796C100.377 12.6556 101.379 12.9076 102.26 13.4087C103.068 13.8764 103.734 14.556 104.184 15.3741C104.649 16.2369 104.886 17.2046 104.871 18.1848V18.6814C104.886 18.8678 104.886 19.0551 104.871 19.2414H95.7697V17.4029H101.837C101.834 17.0823 101.765 16.7658 101.634 16.4731C101.503 16.1804 101.313 15.9178 101.076 15.7016C100.604 15.2863 99.9925 15.0637 99.3637 15.0782C98.8814 15.076 98.4059 15.1921 97.9789 15.4163C97.523 15.6471 97.1527 16.0172 96.9219 16.473C96.6616 17.0312 96.5383 17.6434 96.5625 18.2588V18.9033C96.5512 19.4473 96.667 19.9864 96.9007 20.4777C97.1104 20.9169 97.445 21.2845 97.8627 21.5344C98.2999 21.7847 98.7965 21.9124 99.3003 21.9042C99.7805 21.9237 100.256 21.7986 100.664 21.545C101.01 21.3267 101.289 21.0155 101.467 20.6468H104.512C104.3 21.34 103.939 21.9784 103.455 22.5171C102.96 23.0828 102.351 23.5366 101.668 23.8485C100.939 24.1568 100.155 24.3115 99.3637 24.3029Z" fill="#6A0DAD"/>
<path id="Vector_15" d="M106.763 24.0497V12.9125H109.395L109.617 14.73C109.959 14.1081 110.458 13.587 111.065 13.2189C111.745 12.8243 112.521 12.6267 113.306 12.6483C114.126 12.6209 114.937 12.8182 115.653 13.2189C116.293 13.6188 116.794 14.2052 117.09 14.899C117.448 15.7585 117.617 16.6844 117.587 17.6146V24.0497H114.627V17.9633C114.68 17.2395 114.482 16.5196 114.067 15.924C113.852 15.6808 113.584 15.4904 113.283 15.3677C112.982 15.2449 112.658 15.193 112.334 15.216C111.865 15.2105 111.404 15.3349 111.002 15.5753C110.598 15.8292 110.278 16.1968 110.082 16.632C109.85 17.1234 109.737 17.663 109.754 18.2064V24.1554L106.763 24.0497Z" fill="#6A0DAD"/>
<path id="Vector_16" d="M124.839 24.0498C124.141 24.0624 123.448 23.9367 122.799 23.68C122.22 23.4408 121.739 23.0124 121.435 22.4648C121.079 21.7435 120.912 20.9437 120.949 20.1402V15.4063H119.057V12.9126H120.949L121.287 9.89056H123.93V12.9126H126.847V15.4063H123.909V20.1825C123.885 20.3726 123.903 20.5655 123.961 20.748C124.02 20.9305 124.117 21.098 124.247 21.2391C124.576 21.4604 124.972 21.5612 125.367 21.5244H126.847V24.071L124.839 24.0498Z" fill="#6A0DAD"/>
<path id="Vector_17" d="M128.961 24.0497V8.59076H132.512L137.237 18.2381L141.931 8.59076H145.483V24.0497H142.502V13.6627L138.411 21.8836H136.054L131.942 13.6627V24.0497H128.961Z" fill="#6A0DAD"/>
<path id="Vector_18" d="M151.614 24.3032C150.825 24.3285 150.04 24.1731 149.32 23.8488C148.769 23.584 148.307 23.1657 147.988 22.6443C147.701 22.1275 147.556 21.5445 147.565 20.9536C147.552 20.3194 147.732 19.6963 148.083 19.1678C148.47 18.6209 149.011 18.2015 149.637 17.9632C150.48 17.6423 151.378 17.4915 152.28 17.5194H155.039C155.052 17.0551 154.977 16.5924 154.817 16.1563C154.688 15.8171 154.445 15.5332 154.13 15.3533C153.748 15.1582 153.321 15.0671 152.893 15.0891C152.395 15.0737 151.903 15.2021 151.477 15.459C151.282 15.5791 151.117 15.741 150.992 15.9328C150.868 16.1247 150.788 16.3418 150.758 16.5684H147.861C147.92 15.821 148.191 15.1059 148.644 14.508C149.116 13.9116 149.73 13.443 150.43 13.1449C151.217 12.8176 152.062 12.6523 152.914 12.6588C153.85 12.6387 154.78 12.8189 155.641 13.1871C156.368 13.5132 156.982 14.0462 157.407 14.7193C157.839 15.4618 158.052 16.312 158.02 17.1707V24.0602H155.504L155.176 22.359C155.015 22.6458 154.82 22.9119 154.595 23.1515C154.369 23.3921 154.109 23.5985 153.823 23.7643C153.514 23.9502 153.179 24.0891 152.83 24.1764C152.431 24.2697 152.023 24.3123 151.614 24.3032ZM152.322 21.9997C152.686 22.0146 153.049 21.9421 153.379 21.7884C153.678 21.6574 153.945 21.4627 154.161 21.2178C154.387 20.9739 154.566 20.691 154.69 20.383C154.811 20.0406 154.896 19.6864 154.944 19.3263H152.66C152.301 19.3234 151.944 19.3806 151.603 19.4954C151.35 19.5876 151.129 19.7531 150.969 19.9709C150.838 20.1838 150.769 20.4289 150.768 20.6789C150.761 20.9365 150.831 21.1905 150.969 21.408C151.117 21.6076 151.319 21.7615 151.551 21.8518C151.797 21.9479 152.058 22.0015 152.322 22.0103V21.9997Z" fill="#6A0DAD"/>
<path id="Vector_19" d="M160.25 24.0497V8.19977H163.231V24.0497H160.25ZM167.544 24.0497L162.787 17.9633L167.015 12.923H170.525L165.028 19.263V16.8433L171.243 24.0497H167.544Z" fill="#6A0DAD"/>
<path id="Vector_20" d="M176.888 24.3034C175.853 24.3216 174.83 24.0742 173.918 23.5849C173.072 23.1195 172.375 22.4232 171.91 21.5772C171.417 20.6547 171.17 19.6216 171.191 18.5763C171.167 17.5084 171.41 16.4514 171.899 15.5014C172.349 14.6203 173.042 13.8868 173.897 13.3881C174.806 12.8677 175.841 12.6047 176.888 12.6273C177.902 12.6033 178.903 12.8553 179.785 13.3564C180.593 13.8241 181.258 14.5037 181.709 15.3218C182.174 16.1846 182.411 17.1523 182.396 18.1325V18.6291C182.393 18.8169 182.376 19.0042 182.343 19.1892H173.358V17.4034H179.425C179.422 17.0828 179.353 16.7663 179.222 16.4736C179.091 16.1809 178.901 15.9183 178.664 15.7022C178.187 15.2818 177.567 15.0589 176.931 15.0788C176.448 15.0766 175.973 15.1927 175.546 15.4169C175.09 15.6476 174.72 16.0178 174.489 16.4735C174.229 17.0317 174.105 17.6439 174.129 18.2593V18.9039C174.118 19.4478 174.234 19.9869 174.468 20.4783C174.677 20.9175 175.012 21.285 175.43 21.535C175.867 21.7852 176.363 21.913 176.867 21.9048C177.347 21.9243 177.823 21.7991 178.231 21.5455C178.577 21.3272 178.856 21.016 179.034 20.6474H182.079C181.867 21.3406 181.506 21.979 181.021 22.5177C180.527 23.0833 179.918 23.5372 179.235 23.849C178.493 24.1631 177.694 24.3179 176.888 24.3034Z" fill="#6A0DAD"/>
<path id="Vector_21" d="M184.288 24.0493V12.9121H186.941L187.226 14.9726C187.48 14.5006 187.82 14.081 188.23 13.7363C188.647 13.3921 189.119 13.1206 189.626 12.9332C190.174 12.7512 190.75 12.6654 191.328 12.6796V15.8496H190.271C189.856 15.8454 189.444 15.8988 189.044 16.0081C188.683 16.0956 188.346 16.2656 188.061 16.5047C187.762 16.7509 187.538 17.077 187.416 17.4452C187.255 17.9283 187.179 18.4363 187.195 18.9456V24.0916L184.288 24.0493Z" fill="#6A0DAD"/>
<path id="Vector_22" d="M197.321 24.3031C196.417 24.3202 195.518 24.1548 194.679 23.817C193.976 23.5333 193.363 23.0662 192.903 22.4645C192.481 21.8982 192.228 21.2241 192.173 20.5202H195.133C195.204 20.7983 195.333 21.0578 195.514 21.281C195.701 21.5191 195.945 21.7078 196.222 21.8305C196.558 21.9649 196.917 22.0297 197.279 22.0207C197.61 22.0321 197.941 21.9783 198.251 21.8622C198.48 21.7703 198.675 21.612 198.812 21.4078C198.935 21.2311 199.001 21.021 199.002 20.8055C199.012 20.6713 198.993 20.5364 198.946 20.4104C198.898 20.2844 198.824 20.1704 198.727 20.0764C198.504 19.8825 198.241 19.7417 197.955 19.6643C197.549 19.5398 197.136 19.4375 196.719 19.3579C196.194 19.255 195.676 19.1245 195.165 18.9669C194.689 18.8261 194.232 18.6311 193.801 18.3857C193.416 18.1626 193.09 17.8511 192.85 17.477C192.605 17.0618 192.484 16.5851 192.501 16.1034C192.49 15.4714 192.675 14.8515 193.03 14.3282C193.417 13.7764 193.952 13.3444 194.573 13.0813C195.356 12.7747 196.196 12.6378 197.036 12.6798C198.165 12.6219 199.28 12.9417 200.207 13.5885C200.595 13.8892 200.919 14.265 201.158 14.6935C201.398 15.1219 201.549 15.5942 201.602 16.0822H198.791C198.705 15.7506 198.498 15.4636 198.209 15.2792C197.834 15.0881 197.42 14.9884 196.999 14.9884C196.578 14.9884 196.163 15.0881 195.788 15.2792C195.66 15.3581 195.554 15.4683 195.48 15.5996C195.406 15.7308 195.367 15.8787 195.366 16.0294C195.368 16.1366 195.396 16.2418 195.445 16.337C195.495 16.4321 195.565 16.5149 195.651 16.5789C195.883 16.7647 196.149 16.9046 196.433 16.9909C196.772 17.0966 197.184 17.2023 197.67 17.3079C198.432 17.4622 199.184 17.6634 199.922 17.9102C200.502 18.1028 201.025 18.4369 201.444 18.8824C201.844 19.4043 202.039 20.0544 201.993 20.7104C202.002 21.3846 201.803 22.0451 201.423 22.6018C201.005 23.1632 200.437 23.5954 199.784 23.8487C199.003 24.1679 198.165 24.3226 197.321 24.3031Z" fill="#6A0DAD"/>
<path id="Vector_23" d="M65.6121 44.908V29.4385H75.6858V31.8477H68.593V35.9792H74.2694V38.325H68.593V44.908H65.6121Z" fill="#6A0DAD"/>
<path id="Vector_24" d="M81.9537 45.1727C80.9535 45.1843 79.9683 44.9289 79.0997 44.433C78.2555 43.9413 77.5612 43.2289 77.0913 42.3725C76.585 41.4508 76.3298 40.4124 76.3513 39.3611C76.326 38.2926 76.5811 37.236 77.0913 36.2967C77.5652 35.4425 78.2632 34.7338 79.1102 34.2468C79.9907 33.7612 80.9799 33.5065 81.9854 33.5065C82.991 33.5065 83.9802 33.7612 84.8606 34.2468C85.7022 34.7374 86.3959 35.4455 86.8691 36.2967C87.3556 37.2355 87.6095 38.2774 87.6095 39.3346C87.6095 40.3919 87.3556 41.4338 86.8691 42.3725C86.4003 43.2333 85.7012 43.9467 84.8501 44.433C83.9666 44.9301 82.9675 45.1852 81.9537 45.1727ZM81.9537 42.5839C82.4218 42.6025 82.886 42.4929 83.2962 42.2669C83.701 42.0108 84.0238 41.6441 84.2264 41.2102C84.4759 40.6194 84.5914 39.9807 84.5647 39.3399C84.5843 38.7237 84.4689 38.1105 84.2264 37.5436C84.0238 37.1097 83.701 36.743 83.2962 36.4869C82.9026 36.2445 82.4477 36.1198 81.9854 36.1277C81.5235 36.1227 81.0695 36.2472 80.6747 36.4869C80.2668 36.7424 79.9404 37.109 79.7339 37.5436C79.4914 38.1105 79.376 38.7237 79.3957 39.3399C79.3781 39.9595 79.4935 40.5756 79.7339 41.1468C79.9165 41.5817 80.226 41.9514 80.622 42.2077C81.018 42.4641 81.4821 42.5952 81.9537 42.5839Z" fill="#6A0DAD"/>
<path id="Vector_25" d="M93.7821 45.1726C92.973 45.1954 92.1729 44.9981 91.4672 44.602C90.8174 44.2192 90.3036 43.6428 89.9979 42.9536C89.6356 42.099 89.4625 41.1763 89.4905 40.2485V33.8135H92.4714V39.9738C92.4257 40.6823 92.6193 41.3855 93.021 41.9709C93.2393 42.2084 93.5089 42.3927 93.8094 42.51C94.1099 42.6272 94.4332 42.6741 94.7546 42.6472C95.2293 42.6512 95.6952 42.5192 96.0971 42.2668C96.488 42.0251 96.8059 41.6818 97.0167 41.2735C97.255 40.7724 97.3709 40.222 97.355 39.6674V33.8135H100.315V44.9084H97.7144L97.4713 43.091C97.1485 43.7231 96.6491 44.248 96.0337 44.602C95.3499 44.9955 94.5708 45.1929 93.7821 45.1726Z" fill="#6A0DAD"/>
<path id="Vector_26" d="M102.683 44.9083V33.8133H105.315L105.526 35.6202C105.872 35.0037 106.371 34.4868 106.975 34.1198C107.654 33.7251 108.43 33.5275 109.215 33.5492C110.035 33.5217 110.847 33.719 111.562 34.1198C112.205 34.519 112.71 35.1053 113.01 35.7998C113.363 36.6608 113.532 37.5856 113.507 38.5155V44.9083H110.547V38.7691C110.593 38.0459 110.396 37.3282 109.987 36.7297C109.772 36.4865 109.504 36.2962 109.203 36.1734C108.902 36.0506 108.578 35.9987 108.254 36.0217C107.781 36.0108 107.315 36.1355 106.911 36.381C106.507 36.6349 106.187 37.0025 105.991 37.4377C105.759 37.9292 105.647 38.4688 105.664 39.0121V44.9083H102.683Z" fill="#6A0DAD"/>
<path id="Vector_27" d="M120.706 45.1722C119.744 45.185 118.798 44.9249 117.978 44.4219C117.167 43.9031 116.512 43.1723 116.086 42.3086C115.637 41.3738 115.404 40.35 115.404 39.313C115.404 38.276 115.637 37.2522 116.086 36.3173C116.525 35.4524 117.19 34.7222 118.01 34.204C118.839 33.6943 119.796 33.4305 120.769 33.4432C121.499 33.4248 122.222 33.5768 122.883 33.887C123.473 34.1683 123.977 34.6025 124.342 35.1445V29.0052H127.323V44.908H124.67L124.342 43.3759C124.104 43.7043 123.827 44.0024 123.517 44.2634C123.162 44.5489 122.762 44.7739 122.333 44.9291C121.808 45.101 121.258 45.1832 120.706 45.1722ZM121.414 42.5622C121.96 42.5742 122.499 42.4313 122.968 42.1501C123.421 41.8828 123.789 41.4902 124.025 41.0195C124.268 40.4928 124.394 39.9196 124.394 39.3394C124.394 38.7592 124.268 38.186 124.025 37.6593C123.786 37.1874 123.42 36.792 122.968 36.5181C122.497 36.2572 121.968 36.1203 121.43 36.1203C120.891 36.1203 120.362 36.2572 119.892 36.5181C119.44 36.7933 119.074 37.1884 118.835 37.6593C118.565 38.1702 118.431 38.7411 118.443 39.3183C118.429 39.9092 118.563 40.4943 118.835 41.0195C119.071 41.4902 119.438 41.8828 119.892 42.1501C120.35 42.4271 120.878 42.5699 121.414 42.5622Z" fill="#6A0DAD"/>
<path id="Vector_28" d="M133.433 45.1721C132.643 45.1974 131.859 45.042 131.139 44.7177C130.583 44.4517 130.116 44.0294 129.796 43.5025C129.511 42.9852 129.365 42.4026 129.373 41.8119C129.358 41.1775 129.539 40.554 129.891 40.0261C130.279 39.4736 130.824 39.0503 131.456 38.811C132.298 38.4889 133.197 38.338 134.098 38.3672H136.857C136.871 37.9028 136.796 37.4401 136.635 37.0041C136.507 36.6648 136.264 36.3809 135.948 36.201C135.566 36.0059 135.14 35.9148 134.712 35.9368C134.215 35.9182 133.723 36.0429 133.295 36.2961C133.1 36.4185 132.935 36.5823 132.811 36.7759C132.686 36.9695 132.606 37.1881 132.576 37.4162H129.68C129.738 36.6687 130.01 35.9536 130.462 35.3557C130.934 34.7593 131.549 34.2907 132.249 33.9926C133.034 33.6596 133.88 33.494 134.733 33.5065C135.669 33.4865 136.599 33.6666 137.46 34.0348C138.184 34.3602 138.797 34.8889 139.225 35.5564C139.656 36.2996 139.869 37.1494 139.838 38.0079V44.9079H137.323L136.995 43.2067C136.831 43.4918 136.636 43.7577 136.413 43.9992C136.187 44.2398 135.927 44.4462 135.642 44.612C135.333 44.7979 134.998 44.9368 134.648 45.0241C134.251 45.1246 133.842 45.1743 133.433 45.1721ZM134.141 42.8685C134.505 42.8834 134.867 42.811 135.198 42.6572C135.497 42.5263 135.764 42.3315 135.98 42.0866C136.205 41.8427 136.385 41.5598 136.509 41.2518C136.63 40.9096 136.715 40.5554 136.762 40.1952H134.479C134.12 40.1923 133.762 40.2494 133.422 40.3643C133.164 40.4489 132.941 40.616 132.788 40.8398C132.655 41.052 132.585 41.2975 132.587 41.5477C132.579 41.8054 132.649 42.0593 132.788 42.2768C132.936 42.4765 133.137 42.6303 133.369 42.7206C133.616 42.8131 133.877 42.8631 134.141 42.8685Z" fill="#6A0DAD"/>
<path id="Vector_29" d="M146.931 44.9084C146.234 44.921 145.54 44.7953 144.891 44.5386C144.32 44.2953 143.847 43.8674 143.549 43.3234C143.194 42.6016 143.027 41.8021 143.063 40.9987V36.2649H141.17V33.8134H143.063L143.401 30.7914H146.054V33.8134H149.045V36.3072H146.107V41.0833C146.082 41.2726 146.098 41.4651 146.155 41.6475C146.211 41.83 146.307 41.998 146.435 42.1399C146.764 42.3612 147.16 42.462 147.555 42.4252H149.014V44.9084H146.931Z" fill="#6A0DAD"/>
<path id="Vector_30" d="M152.523 32.2494C152.04 32.2679 151.57 32.0973 151.212 31.7739C151.045 31.6206 150.912 31.4343 150.821 31.227C150.731 31.0197 150.684 30.7957 150.684 30.5693C150.684 30.343 150.731 30.119 150.821 29.9117C150.912 29.7044 151.045 29.5181 151.212 29.3648C151.57 29.0414 152.04 28.8708 152.523 28.8893C153.012 28.8686 153.489 29.0391 153.855 29.3648C154.018 29.5198 154.149 29.7066 154.238 29.9137C154.327 30.1208 154.373 30.3439 154.373 30.5693C154.373 30.7948 154.327 31.0179 154.238 31.225C154.149 31.4321 154.018 31.6189 153.855 31.7739C153.489 32.0995 153.012 32.2701 152.523 32.2494ZM151.022 44.9294V33.8133H154.003V44.9083L151.022 44.9294Z" fill="#6A0DAD"/>
<path id="Vector_31" d="M161.73 45.1727C160.73 45.1843 159.745 44.9289 158.876 44.433C158.029 43.9419 157.331 43.2297 156.857 42.3725C156.356 41.4489 156.101 40.4118 156.117 39.3611C156.097 38.2931 156.352 37.238 156.857 36.2967C157.338 35.4443 158.039 34.7365 158.887 34.2468C159.767 33.7612 160.756 33.5065 161.762 33.5065C162.767 33.5065 163.757 33.7612 164.637 34.2468C165.478 34.7374 166.172 35.4455 166.645 36.2967C167.132 37.2355 167.386 38.2774 167.386 39.3346C167.386 40.3919 167.132 41.4338 166.645 42.3725C166.177 43.2333 165.478 43.9467 164.626 44.433C163.743 44.9301 162.744 45.1852 161.73 45.1727ZM161.73 42.5839C162.201 42.5929 162.665 42.4723 163.073 42.2352C163.477 41.9791 163.8 41.6124 164.003 41.1785C164.243 40.6073 164.358 39.9912 164.341 39.3716C164.361 38.7554 164.245 38.1423 164.003 37.5753C163.8 37.1414 163.477 36.7747 163.073 36.5186C162.775 36.3298 162.441 36.2069 162.092 36.1581C161.743 36.1094 161.388 36.136 161.051 36.2362C160.713 36.3363 160.401 36.5077 160.135 36.7387C159.869 36.9697 159.656 37.255 159.51 37.5753C159.268 38.1423 159.152 38.7554 159.172 39.3716C159.154 39.9912 159.27 40.6073 159.51 41.1785C159.698 41.6074 160.009 41.9704 160.405 42.2209C160.8 42.4713 161.262 42.5978 161.73 42.5839Z" fill="#6A0DAD"/>
<path id="Vector_32" d="M169.372 44.9083V33.8133H172.004L172.226 35.6202C172.572 35.0037 173.071 34.4868 173.675 34.1198C174.354 33.7251 175.13 33.5275 175.916 33.5492C176.735 33.5217 177.547 33.719 178.262 34.1198C178.892 34.5125 179.392 35.0822 179.7 35.7576C180.052 36.6185 180.221 37.5433 180.197 38.4732V44.9083H177.237V38.7691C177.286 38.044 177.085 37.324 176.666 36.7297C176.451 36.4865 176.183 36.2962 175.882 36.1734C175.581 36.0506 175.256 35.9987 174.932 36.0217C174.463 36.0122 174.001 36.1369 173.601 36.381C173.197 36.6349 172.877 37.0025 172.681 37.4377C172.449 37.9292 172.336 38.4688 172.353 39.0121V44.9083H169.372Z" fill="#6A0DAD"/>
<path id="Vector_33" d="M65.3156 53.8053L64.8293 48.9341H65.3473L65.7067 53.1607L67.7045 48.9341H68.2542L68.7088 53.1607L70.5692 48.9341H71.1083L68.8673 53.8053H68.3176L67.8314 49.6632L65.8547 53.8053H65.3156Z" fill="#6A0DAD"/>
<path id="Vector_34" d="M70.9397 53.8056L71.8171 48.7971H72.3033L71.9333 50.9104C72.0817 50.6928 72.2814 50.5149 72.5147 50.3926C72.7377 50.2682 72.9887 50.2028 73.2441 50.2024C73.4797 50.1934 73.7135 50.2482 73.9206 50.3609C74.1015 50.4722 74.2366 50.6447 74.3011 50.847C74.3719 51.1207 74.3719 51.408 74.3011 51.6817L73.9206 53.7951H73.4661L73.8149 51.6817C73.8586 51.5442 73.8736 51.3992 73.8591 51.2556C73.8445 51.112 73.8007 50.973 73.7303 50.847C73.6546 50.7507 73.5558 50.6751 73.4431 50.6271C73.3304 50.5791 73.2074 50.5602 73.0855 50.5723C72.8777 50.5722 72.6736 50.6269 72.4936 50.7307C72.3039 50.8368 72.1411 50.985 72.0179 51.164C71.8843 51.3842 71.7945 51.6282 71.7536 51.8825L71.4259 53.7422L70.9397 53.8056Z" fill="#6A0DAD"/>
<path id="Vector_35" d="M76.3617 53.8894C76.1006 53.8971 75.8431 53.8272 75.6218 53.6886C75.4085 53.561 75.2418 53.3684 75.1461 53.1392C75.0274 52.8817 74.9799 52.5971 75.0087 52.315C75.0111 52.0274 75.0723 51.7434 75.1884 51.4802C75.2874 51.2343 75.4307 51.0087 75.6112 50.8145C75.7882 50.6274 76 50.4766 76.2349 50.3707C76.4813 50.2626 76.748 50.2085 77.0171 50.2122C77.2872 50.2007 77.5549 50.2667 77.7887 50.4024C77.9823 50.53 78.1362 50.7094 78.2327 50.9202C78.3266 51.1438 78.3664 51.3863 78.349 51.6282C78.3581 51.7124 78.3581 51.7975 78.349 51.8817C78.3559 51.9732 78.3559 52.065 78.349 52.1565H75.3892L75.4526 51.7444H77.8733C77.9088 51.5381 77.8868 51.3261 77.8099 51.1315C77.754 50.9591 77.6376 50.8127 77.4822 50.7194C77.3164 50.6207 77.1253 50.5729 76.9325 50.5821C76.7232 50.5859 76.5173 50.6364 76.33 50.73C76.1337 50.8301 75.9608 50.9705 75.8226 51.1421C75.6774 51.3508 75.58 51.5889 75.5372 51.8395V52.0191C75.4885 52.2633 75.4885 52.5146 75.5372 52.7588C75.5883 52.9561 75.7036 53.1308 75.8649 53.2554C76.0383 53.3751 76.2463 53.4345 76.4568 53.4245C76.6814 53.438 76.9053 53.39 77.1046 53.2858C77.3039 53.1815 77.471 53.0249 77.5879 52.8327H78.0636C77.9688 53.0388 77.8362 53.2252 77.6725 53.3822C77.5116 53.5509 77.3171 53.6841 77.1016 53.7732C76.8655 53.862 76.6137 53.9015 76.3617 53.8894Z" fill="#6A0DAD"/>
<path id="Vector_36" d="M78.783 53.805L79.4066 50.2969H79.8506L79.7766 50.9309C79.8775 50.781 80.0025 50.6489 80.1466 50.5399C80.2975 50.4319 80.4654 50.3497 80.6434 50.2969C80.8394 50.2414 81.0422 50.213 81.2459 50.2123L81.1613 50.7195H80.9816C80.8306 50.7032 80.6782 50.7032 80.5271 50.7195C80.3831 50.759 80.2472 50.8234 80.1254 50.9097C79.996 50.9976 79.8877 51.1131 79.8083 51.2479C79.7164 51.4161 79.6521 51.5981 79.618 51.7868L79.2798 53.805H78.783Z" fill="#6A0DAD"/>
<path id="Vector_37" d="M82.6941 53.8894C82.4295 53.8985 82.1682 53.8286 81.9436 53.6886C81.7304 53.561 81.5637 53.3684 81.4679 53.1392C81.3539 52.8803 81.3066 52.5969 81.3305 52.315C81.333 52.0274 81.3941 51.7434 81.5102 51.4802C81.6092 51.2343 81.7525 51.0087 81.933 50.8145C82.11 50.6274 82.3219 50.4766 82.5567 50.3707C82.8031 50.2626 83.0698 50.2085 83.3389 50.2122C83.609 50.2007 83.8768 50.2667 84.1106 50.4024C84.3042 50.53 84.458 50.7094 84.5545 50.9202C84.6534 51.1423 84.6935 51.3861 84.6708 51.6282C84.6799 51.7124 84.6799 51.7975 84.6708 51.8817C84.6777 51.9732 84.6777 52.065 84.6708 52.1565H81.711L81.7745 51.7444H84.1951C84.2285 51.5389 84.2104 51.3283 84.1423 51.1315C84.0738 50.974 83.9548 50.8439 83.804 50.7617C83.6415 50.6644 83.4542 50.6167 83.2649 50.6243C83.0552 50.6255 82.8488 50.6762 82.6624 50.7723C82.4623 50.8665 82.2882 51.0079 82.155 51.1844C82.0021 51.3899 81.9007 51.629 81.859 51.8817V52.0614C81.8103 52.3055 81.8103 52.5569 81.859 52.801C81.9102 52.9983 82.0254 53.173 82.1867 53.2977C82.3602 53.4173 82.5682 53.4767 82.7787 53.4667C83.0074 53.4761 83.2343 53.4217 83.434 53.3098C83.6337 53.1979 83.7984 53.0327 83.9097 52.8327H84.3854C84.2907 53.0388 84.158 53.2252 83.9943 53.3822C83.8334 53.5509 83.639 53.6841 83.4235 53.7732C83.1907 53.8608 82.9426 53.9004 82.6941 53.8894Z" fill="#6A0DAD"/>
<path id="Vector_38" d="M88.4442 53.8052C88.259 53.8091 88.0751 53.7731 87.9051 53.6996C87.8387 53.6649 87.78 53.617 87.7327 53.5589C87.6855 53.5007 87.6506 53.4336 87.6303 53.3614C87.5875 53.1701 87.5875 52.9716 87.6303 52.7803L87.9897 50.667H87.4294L87.5034 50.2549H88.0637L88.2751 49.4412H88.6979L88.5499 50.2549H89.607L89.533 50.7198H88.4759L88.106 52.8331C88.106 53.0656 88.106 53.2241 88.106 53.3086C88.1674 53.3589 88.2385 53.3961 88.3148 53.418C88.3912 53.4398 88.4712 53.4457 88.5499 53.4354H88.9939L88.9093 53.8581L88.4442 53.8052Z" fill="#6A0DAD"/>
<path id="Vector_39" d="M90.8434 53.8895C90.6259 53.8974 90.4104 53.8463 90.2197 53.7416C90.0637 53.6645 89.9374 53.5383 89.8603 53.3823C89.7866 53.2352 89.7537 53.071 89.7652 52.9068C89.7665 52.6685 89.8485 52.4376 89.9977 52.2517C90.1508 52.0574 90.3561 51.9108 90.5897 51.829C90.8679 51.7313 91.1616 51.6848 91.4565 51.6917H92.3972C92.4399 51.4967 92.4399 51.2949 92.3972 51.0999C92.3641 50.9568 92.2771 50.8318 92.1541 50.7512C92.013 50.6596 91.8464 50.6152 91.6784 50.6244C91.446 50.6222 91.2181 50.6883 91.0231 50.8146C90.8286 50.9377 90.6829 51.1245 90.6108 51.343H90.1034C90.1671 51.1075 90.2909 50.8927 90.4628 50.7195C90.627 50.5524 90.8253 50.4226 91.0442 50.3391C91.267 50.2545 91.5035 50.2115 91.7419 50.2123C92.0042 50.1975 92.2652 50.26 92.4924 50.392C92.6716 50.5099 92.8057 50.6849 92.8729 50.8886C92.9322 51.1352 92.9322 51.3923 92.8729 51.6388L92.5029 53.805H92.059L92.133 53.1604C92.0657 53.2606 91.9915 53.3559 91.911 53.4457C91.8254 53.5312 91.7295 53.6057 91.6256 53.6676C91.5127 53.735 91.392 53.7882 91.2662 53.8261C91.1293 53.8687 90.9867 53.8901 90.8434 53.8895ZM90.9491 53.4563C91.1205 53.4592 91.2904 53.4231 91.4459 53.3506C91.5923 53.2789 91.7276 53.1864 91.8476 53.0759C91.9669 52.9586 92.0669 52.8231 92.1435 52.6744C92.2212 52.5327 92.2748 52.3792 92.3021 52.22V52.0932H91.393C91.1846 52.0871 90.9767 52.1193 90.7799 52.1883C90.63 52.2433 90.4958 52.334 90.3888 52.4525C90.2951 52.5689 90.2463 52.7152 90.2514 52.8646C90.2435 52.9432 90.2526 53.0226 90.2781 53.0973C90.3037 53.1721 90.345 53.2405 90.3994 53.2978C90.543 53.4116 90.7239 53.4681 90.9068 53.4563H90.9491Z" fill="#6A0DAD"/>
<path id="Vector_40" d="M93.5183 53.8056L94.3957 48.7971H94.8819L94.0046 53.8056H93.5183Z" fill="#6A0DAD"/>
<path id="Vector_41" d="M96.499 53.8894C96.2345 53.8985 95.9732 53.8286 95.7485 53.6886C95.5353 53.561 95.3686 53.3684 95.2729 53.1392C95.1588 52.8803 95.1115 52.5969 95.1354 52.315C95.144 52.0281 95.2049 51.7452 95.3151 51.4802C95.4141 51.2343 95.5575 51.0087 95.738 50.8145C95.9149 50.6274 96.1268 50.4766 96.3616 50.3707C96.6083 50.2635 96.8749 50.2095 97.1439 50.2122C97.414 50.2007 97.6817 50.2667 97.9155 50.4024C98.1091 50.53 98.263 50.7094 98.3595 50.9202C98.4584 51.1423 98.4984 51.3861 98.4757 51.6282C98.4848 51.7124 98.4848 51.7975 98.4757 51.8817C98.4757 51.9874 98.4757 52.0719 98.4757 52.1565H95.516L95.5794 51.7444H98.0001C98.0506 51.5432 98.0506 51.3327 98.0001 51.1315C97.9316 50.974 97.8126 50.8439 97.6618 50.7617C97.4993 50.6644 97.312 50.6167 97.1227 50.6243C96.913 50.6255 96.7066 50.6762 96.5202 50.7723C96.3201 50.8665 96.146 51.0079 96.0128 51.1844C95.8599 51.3899 95.7584 51.629 95.7168 51.8817V52.0614C95.6681 52.3055 95.6681 52.5569 95.7168 52.801C95.768 52.9983 95.8832 53.173 96.0445 53.2977C96.2186 53.4159 96.4261 53.4752 96.6365 53.4667C96.8777 53.4718 97.1156 53.4096 97.3235 53.2871C97.5135 53.1658 97.6698 52.9986 97.7781 52.801H98.2538C98.1592 53.0046 98.0305 53.1904 97.8732 53.3505C97.7009 53.5221 97.4964 53.6579 97.2715 53.7504C97.0466 53.8429 96.8057 53.8901 96.5625 53.8894H96.499Z" fill="#6A0DAD"/>
<path id="Vector_42" d="M98.9089 53.8054L99.5326 50.2973H99.966L99.892 50.9313C100.033 50.7087 100.23 50.5267 100.463 50.403C100.693 50.2773 100.951 50.2118 101.213 50.2128C101.46 50.2019 101.704 50.2684 101.911 50.403C102.089 50.5272 102.216 50.7108 102.27 50.9207C102.33 51.1709 102.33 51.4314 102.27 51.6815L101.89 53.7948H101.478L101.837 51.6815C101.878 51.5471 101.891 51.4059 101.877 51.2662C101.862 51.1265 101.82 50.9911 101.752 50.8679C101.678 50.7665 101.579 50.6867 101.463 50.6365C101.348 50.5864 101.222 50.5678 101.097 50.5826C100.897 50.5839 100.701 50.6347 100.526 50.7305C100.346 50.8325 100.191 50.9732 100.072 51.1426C99.9345 51.3467 99.8409 51.577 99.7969 51.8189L99.3635 53.8054H98.9089Z" fill="#6A0DAD"/>
<path id="Vector_43" d="M104.152 53.8052C103.966 53.8105 103.782 53.7744 103.613 53.6996C103.546 53.6649 103.488 53.617 103.44 53.5589C103.393 53.5007 103.358 53.4336 103.338 53.3614C103.295 53.1701 103.295 52.9716 103.338 52.7803L103.697 50.667H103.137L103.211 50.2549H103.771L103.983 49.4412H104.405L104.257 50.2549H105.315L105.241 50.667H104.183L103.813 52.7803C103.813 53.0127 103.813 53.1712 103.813 53.2558C103.875 53.3061 103.946 53.3433 104.022 53.3651C104.099 53.3869 104.179 53.3929 104.257 53.3826H104.701L104.617 53.8052H104.152Z" fill="#6A0DAD"/>
<path id="Vector_44" d="M107.482 53.8048L108.105 50.2967H108.539L108.475 50.8885C108.607 50.6845 108.784 50.5144 108.993 50.3918C109.19 50.2703 109.417 50.208 109.649 50.2122C109.807 50.2083 109.965 50.2334 110.114 50.2862C110.25 50.3344 110.37 50.4183 110.463 50.5292C110.565 50.6425 110.634 50.7812 110.663 50.9307C110.808 50.7105 111.004 50.5291 111.234 50.4024C111.45 50.2797 111.694 50.2143 111.942 50.2122C112.168 50.2053 112.391 50.2601 112.587 50.3707C112.768 50.482 112.903 50.6544 112.968 50.8568C113.039 51.1304 113.039 51.4179 112.968 51.6915L112.587 53.8048H112.112L112.471 51.6915C112.545 51.4122 112.515 51.1156 112.386 50.8568C112.321 50.7649 112.234 50.6913 112.132 50.6432C112.03 50.5951 111.917 50.574 111.805 50.582C111.633 50.5826 111.465 50.6301 111.319 50.7194C111.146 50.8155 111.001 50.9536 110.896 51.1209C110.765 51.3129 110.672 51.528 110.621 51.7549L110.262 53.752H109.776L110.135 51.6387C110.211 51.3605 110.185 51.0644 110.061 50.8039C110 50.713 109.916 50.6397 109.818 50.5915C109.719 50.5432 109.61 50.5218 109.501 50.5292C109.315 50.5311 109.132 50.5822 108.972 50.6771C108.792 50.7885 108.64 50.9405 108.528 51.1209C108.393 51.3365 108.303 51.5774 108.264 51.8289L107.936 53.6992L107.482 53.8048Z" fill="#6A0DAD"/>
<path id="Vector_45" d="M115.039 53.8894C114.778 53.8971 114.521 53.8272 114.299 53.6886C114.086 53.5589 113.916 53.3673 113.813 53.1392C113.703 52.8792 113.66 52.596 113.686 52.315C113.691 52.0287 113.749 51.7458 113.856 51.4802C113.962 51.2359 114.109 51.0109 114.289 50.8145C114.468 50.6213 114.686 50.4679 114.928 50.3641C115.17 50.2604 115.431 50.2086 115.695 50.2122C115.965 50.2007 116.233 50.2667 116.466 50.4024C116.66 50.53 116.814 50.7094 116.91 50.9202C117.004 51.1438 117.044 51.3863 117.027 51.6282C117.036 51.7124 117.036 51.7975 117.027 51.8817C117.016 51.9745 116.998 52.0664 116.974 52.1565H114.056L114.162 51.7761H116.583C116.618 51.5698 116.596 51.3578 116.519 51.1632C116.455 51.0065 116.339 50.8761 116.192 50.7934C116.026 50.6947 115.835 50.6469 115.642 50.656C115.433 50.6599 115.227 50.7104 115.039 50.804C114.843 50.9041 114.67 51.0445 114.532 51.2161C114.387 51.4248 114.289 51.6629 114.247 51.9134V52.0931C114.198 52.3372 114.198 52.5886 114.247 52.8327C114.294 53.0318 114.41 53.2077 114.574 53.3294C114.748 53.449 114.956 53.5084 115.166 53.4984C115.395 53.5008 115.619 53.4398 115.815 53.3223C116.011 53.2048 116.171 53.0354 116.276 52.8327H116.741C116.654 53.0405 116.525 53.2278 116.361 53.3822C116.2 53.5509 116.005 53.6841 115.79 53.7732C115.55 53.8634 115.295 53.903 115.039 53.8894Z" fill="#6A0DAD"/>
<path id="Vector_46" d="M118.961 53.8894C118.697 53.8985 118.436 53.8286 118.211 53.6886C117.998 53.561 117.831 53.3684 117.735 53.1392C117.621 52.8803 117.574 52.5969 117.598 52.315C117.606 52.0281 117.667 51.7452 117.778 51.4802C117.877 51.2343 118.02 51.0087 118.2 50.8145C118.377 50.6274 118.589 50.4766 118.824 50.3707C119.07 50.2626 119.337 50.2085 119.606 50.2122C119.876 50.2007 120.144 50.2667 120.378 50.4024C120.572 50.53 120.725 50.7094 120.822 50.9202C120.921 51.1423 120.961 51.3861 120.938 51.6282C120.947 51.7124 120.947 51.7975 120.938 51.8817C120.945 51.9732 120.945 52.065 120.938 52.1565H118.063L118.126 51.7444H120.505C120.555 51.5432 120.555 51.3327 120.505 51.1315C120.436 50.974 120.317 50.8439 120.166 50.7617C120.004 50.6644 119.817 50.6167 119.627 50.6243C119.418 50.6255 119.211 50.6762 119.025 50.7723C118.825 50.8665 118.651 51.0079 118.517 51.1844C118.365 51.3899 118.263 51.629 118.222 51.8817V52.0614C118.173 52.3055 118.173 52.5569 118.222 52.801C118.273 52.9983 118.388 53.173 118.549 53.2977C118.723 53.4173 118.931 53.4767 119.141 53.4667C119.375 53.4751 119.606 53.4169 119.808 53.2991C120.01 53.1813 120.175 53.0086 120.283 52.801H120.758C120.664 53.0071 120.531 53.1935 120.367 53.3505C120.206 53.5192 120.012 53.6524 119.797 53.7415C119.533 53.8551 119.248 53.9058 118.961 53.8894Z" fill="#6A0DAD"/>
<path id="Vector_47" d="M122.693 53.8052C122.504 53.8103 122.317 53.7743 122.143 53.6996C122.077 53.6649 122.018 53.617 121.971 53.5589C121.924 53.5007 121.889 53.4336 121.869 53.3614C121.826 53.1701 121.826 52.9716 121.869 52.7803L122.228 50.667H121.668L121.752 50.2549H122.302L122.513 49.4412H122.936L122.799 50.2549H123.856L123.782 50.667H122.725L122.355 52.7803C122.316 52.8541 122.299 52.9378 122.308 53.0209C122.316 53.104 122.349 53.1827 122.402 53.2472C122.455 53.3116 122.526 53.3588 122.606 53.3829C122.686 53.407 122.772 53.4069 122.852 53.3826H123.296L123.222 53.8052H122.693Z" fill="#6A0DAD"/>
<path id="Vector_48" d="M125.282 53.8896C125.031 53.8951 124.782 53.8445 124.553 53.7417C124.363 53.653 124.207 53.5046 124.109 53.319C124.012 53.1151 123.972 52.8888 123.993 52.6639H124.5C124.495 52.8006 124.517 52.937 124.564 53.0655C124.623 53.187 124.719 53.2868 124.839 53.3508C125.001 53.4245 125.178 53.4607 125.356 53.4564C125.512 53.4589 125.667 53.4302 125.811 53.3719C125.937 53.3259 126.047 53.2453 126.128 53.1394C126.204 53.0388 126.244 52.9165 126.244 52.7907C126.253 52.7373 126.251 52.6826 126.239 52.6299C126.226 52.5773 126.203 52.5277 126.17 52.4843C126.093 52.4054 125.999 52.3441 125.896 52.3047C125.75 52.2597 125.602 52.2244 125.452 52.199L125.05 52.0933C124.93 52.0486 124.816 51.9882 124.712 51.9137C124.613 51.8473 124.532 51.7563 124.479 51.6495C124.426 51.5298 124.401 51.3999 124.405 51.2691C124.413 51.0726 124.483 50.8838 124.606 50.7302C124.734 50.565 124.901 50.4343 125.092 50.3498C125.312 50.2529 125.55 50.206 125.79 50.2125C126.095 50.1941 126.395 50.2881 126.636 50.4766C126.743 50.5743 126.825 50.6964 126.874 50.8325C126.924 50.9687 126.94 51.1149 126.921 51.2586H126.424C126.439 51.1772 126.432 51.0935 126.404 51.0156C126.376 50.9378 126.328 50.8686 126.266 50.8148C126.191 50.7522 126.106 50.705 126.013 50.6759C125.92 50.6469 125.823 50.6366 125.726 50.6457C125.524 50.6372 125.325 50.6927 125.156 50.8042C125.088 50.8455 125.031 50.9027 124.991 50.9708C124.95 51.039 124.927 51.116 124.923 51.1952C124.918 51.2889 124.944 51.3816 124.997 51.4593C125.066 51.539 125.153 51.6007 125.251 51.639L125.684 51.7658C125.828 51.7897 125.969 51.8251 126.107 51.8714C126.231 51.914 126.349 51.9746 126.456 52.0511C126.557 52.1191 126.638 52.2143 126.688 52.3258C126.753 52.449 126.779 52.5891 126.762 52.7273C126.753 52.9479 126.68 53.1609 126.551 53.3402C126.411 53.5158 126.229 53.6538 126.022 53.7417C125.789 53.8413 125.537 53.8917 125.282 53.8896Z" fill="#6A0DAD"/>
<path id="Vector_49" d="M131.075 53.8898C130.802 53.891 130.532 53.8219 130.293 53.689C130.072 53.5524 129.895 53.3541 129.786 53.1184C129.664 52.858 129.613 52.5701 129.638 52.2837C129.647 51.9969 129.708 51.7143 129.817 51.4489C129.93 51.2088 130.08 50.9878 130.261 50.7938C130.444 50.6107 130.659 50.4637 130.896 50.3606C131.141 50.2635 131.403 50.2133 131.667 50.2126C131.942 50.2022 132.214 50.272 132.449 50.4134C132.67 50.5441 132.85 50.7346 132.967 50.9628C133.084 51.2212 133.135 51.5043 133.115 51.787C133.103 52.078 133.039 52.3643 132.925 52.6324C132.825 52.8769 132.678 53.0994 132.492 53.2875C132.306 53.4743 132.088 53.6248 131.847 53.7313C131.604 53.8383 131.341 53.8923 131.075 53.8898ZM131.139 53.4671C131.395 53.4734 131.646 53.3995 131.858 53.2558C132.083 53.1128 132.265 52.9121 132.386 52.6746C132.527 52.4149 132.604 52.1249 132.608 51.8293C132.633 51.6054 132.596 51.379 132.502 51.1742C132.423 51.006 132.294 50.866 132.132 50.7726C131.973 50.6779 131.789 50.6303 131.604 50.6353C131.352 50.6351 131.106 50.7086 130.896 50.8466C130.671 50.9896 130.488 51.1903 130.367 51.4278C130.227 51.6885 130.147 51.9774 130.135 52.2731C130.12 52.4977 130.16 52.7224 130.251 52.9282C130.333 53.0947 130.462 53.234 130.621 53.3298C130.758 53.4132 130.915 53.4605 131.075 53.4671H131.139Z" fill="#6A0DAD"/>
<path id="Vector_50" d="M133.337 55.3371L134.246 50.2968H134.701L134.627 50.9308C134.723 50.7902 134.841 50.6655 134.976 50.561C135.108 50.452 135.258 50.3663 135.42 50.3074C135.61 50.2415 135.81 50.2094 136.012 50.2123C136.285 50.1999 136.555 50.2738 136.783 50.4236C136.998 50.5567 137.168 50.752 137.269 50.9836C137.371 51.2352 137.422 51.5047 137.417 51.7761C137.407 52.0618 137.35 52.3438 137.248 52.6109C137.148 52.8554 137.001 53.078 136.815 53.266C136.642 53.4529 136.433 53.6037 136.202 53.7098C135.959 53.8168 135.696 53.8708 135.43 53.8683C135.249 53.867 135.069 53.8311 134.902 53.7627C134.748 53.7036 134.611 53.6095 134.5 53.4879C134.396 53.3894 134.313 53.2707 134.257 53.1392L133.866 55.3159L133.337 55.3371ZM135.451 53.4668C135.703 53.4682 135.95 53.3946 136.16 53.2555C136.381 53.1164 136.56 52.919 136.677 52.6849C136.807 52.4255 136.876 52.14 136.878 51.8501C136.903 51.6341 136.871 51.4153 136.783 51.2161C136.717 51.0438 136.598 50.8962 136.445 50.7934C136.282 50.6861 136.09 50.6308 135.895 50.6349C135.637 50.6319 135.383 50.7054 135.166 50.8463C134.943 50.9915 134.761 51.1917 134.637 51.4274C134.505 51.6902 134.433 51.9789 134.426 52.2728C134.405 52.4853 134.438 52.6996 134.521 52.8962C134.601 53.0666 134.725 53.2125 134.88 53.3189C135.05 53.4194 135.244 53.4706 135.441 53.4668H135.451Z" fill="#6A0DAD"/>
<path id="Vector_51" d="M137.618 55.3371L138.474 50.2968H138.929L138.855 50.9308C138.954 50.7927 139.072 50.6684 139.204 50.561C139.336 50.452 139.486 50.3663 139.648 50.3074C139.838 50.2415 140.038 50.2094 140.24 50.2123C140.513 50.1999 140.783 50.2738 141.011 50.4236C141.226 50.5567 141.396 50.752 141.498 50.9836C141.604 51.2338 141.655 51.5043 141.646 51.7761C141.641 52.0624 141.583 52.3453 141.476 52.6109C141.376 52.8528 141.233 53.0747 141.054 53.266C140.877 53.4532 140.665 53.6039 140.43 53.7098C140.187 53.8168 139.924 53.8708 139.658 53.8683C139.477 53.866 139.298 53.8302 139.13 53.7627C138.976 53.7036 138.839 53.6095 138.728 53.4879C138.624 53.3894 138.542 53.2707 138.485 53.1392L138.094 55.3159L137.618 55.3371ZM139.732 53.4668C139.987 53.4666 140.237 53.3932 140.451 53.2555C140.667 53.1129 140.842 52.9162 140.958 52.6849C141.093 52.4272 141.162 52.1406 141.159 51.8501C141.183 51.635 141.154 51.4175 141.075 51.2161C141 51.0453 140.88 50.8988 140.726 50.7934C140.563 50.6861 140.371 50.6308 140.176 50.6349C139.918 50.6319 139.664 50.7054 139.447 50.8463C139.226 50.9946 139.045 51.194 138.918 51.4274C138.786 51.6902 138.714 51.9789 138.707 52.2728C138.691 52.4851 138.724 52.6983 138.802 52.8962C138.882 53.0666 139.006 53.2125 139.161 53.3189C139.331 53.4194 139.525 53.4706 139.722 53.4668H139.732Z" fill="#6A0DAD"/>
<path id="Vector_52" d="M143.76 53.8896C143.489 53.8909 143.224 53.8217 142.988 53.6888C142.767 53.5522 142.591 53.3539 142.481 53.1182C142.359 52.8578 142.308 52.5699 142.333 52.2835C142.337 51.9961 142.398 51.7125 142.512 51.4487C142.618 51.2043 142.769 50.9821 142.956 50.7936C143.139 50.6105 143.354 50.4635 143.591 50.3603C143.836 50.2633 144.098 50.2131 144.362 50.2124C144.637 50.2032 144.908 50.2729 145.145 50.4132C145.365 50.5417 145.541 50.733 145.652 50.9626C145.773 51.2195 145.824 51.5039 145.8 51.7868C145.791 52.0771 145.731 52.3635 145.62 52.6322C145.408 53.1013 145.032 53.477 144.563 53.6888C144.313 53.8136 144.039 53.8821 143.76 53.8896ZM143.823 53.4669C144.083 53.4747 144.338 53.4008 144.553 53.2556C144.778 53.1126 144.96 52.9119 145.081 52.6744C145.222 52.4147 145.299 52.1247 145.303 51.8291C145.325 51.6042 145.285 51.3776 145.187 51.174C145.115 51.0041 144.988 50.8629 144.827 50.7724C144.668 50.6777 144.485 50.63 144.299 50.6351C144.047 50.6349 143.801 50.7084 143.591 50.8464C143.366 50.9894 143.183 51.1901 143.062 51.4276C142.917 51.6863 142.837 51.9764 142.83 52.2729C142.81 52.4977 142.85 52.7237 142.946 52.928C143.029 53.0907 143.153 53.229 143.305 53.3296C143.443 53.4122 143.599 53.4594 143.76 53.4669H143.823Z" fill="#6A0DAD"/>
<path id="Vector_53" d="M146.297 53.805L146.931 50.2969H147.375L147.301 50.9309C147.51 50.6276 147.816 50.4041 148.168 50.2969C148.364 50.2414 148.567 50.213 148.771 50.2123L148.686 50.7195H148.506C148.355 50.7032 148.203 50.7032 148.052 50.7195C147.909 50.7612 147.773 50.8254 147.65 50.9097C147.521 50.9976 147.412 51.1131 147.333 51.2479C147.241 51.4161 147.177 51.5981 147.143 51.7868L146.794 53.7522L146.297 53.805Z" fill="#6A0DAD"/>
<path id="Vector_54" d="M150.103 53.8052C149.914 53.809 149.727 53.773 149.553 53.6996C149.488 53.6648 149.43 53.6168 149.385 53.5585C149.339 53.5003 149.307 53.4331 149.289 53.3614C149.245 53.1702 149.245 52.9716 149.289 52.7803L149.659 50.667H149.098L149.172 50.2549H149.733L149.944 49.4412H150.367L150.219 50.2549H151.276L151.213 50.667H150.155L149.796 52.7803C149.796 53.0127 149.796 53.1712 149.796 53.2558C149.926 53.3549 150.088 53.4003 150.251 53.3826H150.684L150.61 53.8052H150.103Z" fill="#6A0DAD"/>
<path id="Vector_55" d="M152.682 53.8898C152.435 53.9007 152.191 53.8342 151.984 53.6996C151.809 53.5723 151.683 53.3899 151.625 53.1819C151.561 52.9323 151.561 52.6706 151.625 52.4211L151.995 50.3077H152.481L152.121 52.3682C152.052 52.6434 152.078 52.9339 152.195 53.1924C152.269 53.2946 152.368 53.3751 152.484 53.4254C152.599 53.4756 152.726 53.4937 152.851 53.4777C153.05 53.4764 153.247 53.4256 153.422 53.3298C153.61 53.2346 153.77 53.0927 153.887 52.9177C154.032 52.7168 154.129 52.4855 154.172 52.2414L154.5 50.3077H154.997L154.331 53.8053H153.887L153.961 53.1713C153.817 53.3915 153.621 53.5729 153.39 53.6996C153.172 53.8186 152.93 53.8838 152.682 53.8898Z" fill="#6A0DAD"/>
<path id="Vector_56" d="M155.388 53.8054L156.001 50.2973H156.445L156.371 50.9313C156.514 50.7109 156.71 50.5297 156.94 50.4042C157.171 50.2787 157.43 50.2129 157.692 50.2128C157.939 50.2019 158.183 50.2684 158.39 50.403C158.565 50.5303 158.691 50.7127 158.749 50.9207C158.808 51.1709 158.808 51.4313 158.749 51.6815L158.379 53.7948H157.893L158.253 51.6815C158.324 51.409 158.294 51.1199 158.168 50.8679C158.093 50.7673 157.993 50.6881 157.878 50.638C157.763 50.588 157.637 50.5689 157.513 50.5826C157.313 50.5839 157.117 50.6347 156.942 50.7305C156.76 50.8297 156.604 50.971 156.487 51.1426C156.342 51.3436 156.245 51.5748 156.202 51.8189L155.864 53.7526L155.388 53.8054Z" fill="#6A0DAD"/>
<path id="Vector_57" d="M159.362 53.8052L159.975 50.2971H160.461L159.848 53.8052H159.362ZM160.419 49.4623C160.372 49.4654 160.326 49.4585 160.282 49.4421C160.238 49.4257 160.198 49.4001 160.165 49.3671C160.132 49.3341 160.107 49.2944 160.09 49.2506C160.074 49.2069 160.067 49.1602 160.07 49.1136C160.068 49.0671 160.075 49.0205 160.091 48.9769C160.107 48.9332 160.133 48.8934 160.165 48.86C160.234 48.7964 160.325 48.7623 160.419 48.7649C160.464 48.7639 160.508 48.7717 160.55 48.7881C160.592 48.8044 160.63 48.8288 160.662 48.86C160.698 48.8916 160.725 48.9309 160.744 48.9748C160.762 49.0187 160.77 49.0661 160.768 49.1136C160.768 49.1608 160.759 49.2077 160.741 49.2513C160.723 49.2948 160.696 49.3343 160.662 49.3672C160.6 49.4276 160.516 49.4616 160.429 49.4623H160.419Z" fill="#6A0DAD"/>
<path id="Vector_58" d="M162.227 53.8052C162.038 53.809 161.851 53.773 161.677 53.6996C161.548 53.6255 161.453 53.5042 161.413 53.3614C161.37 53.1701 161.37 52.9716 161.413 52.7803L161.772 50.667H161.212L161.286 50.2549H161.846L162.058 49.4412H162.48L162.332 50.2549H163.389L163.315 50.667H162.258L161.888 52.7803C161.888 53.0127 161.888 53.1712 161.941 53.2558C162.003 53.3061 162.074 53.3433 162.15 53.3651C162.227 53.3869 162.307 53.3929 162.385 53.3826H162.829L162.745 53.8052H162.227Z" fill="#6A0DAD"/>
<path id="Vector_59" d="M163.622 55.3372L164.817 53.4247H164.626L163.802 50.2547H164.299L165.028 53.0549L166.783 50.2547H167.29L164.119 55.295L163.622 55.3372Z" fill="#6A0DAD"/>
</g>
</g>
</svg>
